<svg width="64" height="64" viewBox="0 0 64 64" fill="none" xmlns="http://www.w3.org/2000/svg">
<g clip-path="url(#clip0_191_38531)">
<path opacity="0.2" d="M45.3334 61.448C43.275 61.4232 41.2227 61.218 39.2001 60.8347L15.8108 56.712C2.68277 54.4 -1.72523 48.0987 0.586769 34.9733L0.800103 33.8053C1.00464 32.6222 1.51516 31.5131 2.28095 30.5882C3.04674 29.6634 4.04116 28.955 5.16544 28.5333C4.72227 28.1569 4.33048 27.7238 4.0001 27.2453C3.47761 26.5062 3.10739 25.6705 2.91099 24.787C2.71458 23.9034 2.69593 22.9895 2.8561 22.0987L3.0641 20.9253C4.36277 13.568 7.30944 5.104 18.6668 5.104C20.7251 5.13024 22.7773 5.33546 24.8001 5.71734L48.1921 9.84267C61.3174 12.1573 65.7254 18.456 63.4134 31.5813L63.0001 33.9173C62.7936 35.0993 62.2816 36.2067 61.5149 37.1296C60.7482 38.0526 59.7535 38.759 58.6294 39.1787C59.538 39.9605 60.2283 40.9646 60.633 42.0928C61.0378 43.221 61.1431 44.4349 60.9388 45.616C59.6374 52.9867 56.6881 61.448 45.3334 61.448Z" fill="#1A1A1A"/>
<path d="M45.3334 58.896C43.2751 58.8699 41.2229 58.6647 39.2001 58.2827L15.8108 54.1573C2.68277 51.8427 -1.72523 45.544 0.586769 32.4187L0.800103 31.2507C1.0081 30.0689 1.52096 28.9619 2.28798 28.0392C3.055 27.1164 4.04961 26.4098 5.17344 25.9893C4.72814 25.6137 4.3337 25.1816 4.0001 24.704C3.47767 23.9643 3.10749 23.1282 2.9111 22.2442C2.7147 21.3602 2.69601 20.446 2.8561 19.5547L3.0641 18.384C4.36277 11.0133 7.30944 2.552 18.6668 2.552C20.7252 2.57691 22.7775 2.78214 24.8001 3.16534L48.1921 7.288C61.3174 9.60267 65.7254 15.9013 63.4134 29.0267L63.0001 31.3653C62.7929 32.547 62.2806 33.654 61.514 34.5769C60.7474 35.4997 59.7531 36.2063 58.6294 36.6267C59.0699 37.0049 59.4614 37.4367 59.7948 37.912C60.316 38.6523 60.6855 39.4884 60.8818 40.3722C61.0782 41.2561 61.0975 42.17 60.9388 43.0613C59.6374 50.432 56.6881 58.896 45.3334 58.896Z" fill="#FBFBFB"/>
<path d="M55.9083 31.9227C56.1386 31.9638 56.3747 31.959 56.6031 31.9087C56.8316 31.8584 57.0479 31.7635 57.2396 31.6295C57.4313 31.4955 57.5947 31.325 57.7204 31.1278C57.8462 30.9305 57.9318 30.7104 57.9723 30.4801L58.3857 28.1387C60.2017 17.8321 57.615 14.1361 47.3057 12.3174L23.9137 8.19472C13.6017 6.37605 9.91098 8.96272 8.09232 19.2721L7.88698 20.4427C7.80561 20.9077 7.91213 21.386 8.18313 21.7724C8.45412 22.1589 8.86745 22.4221 9.33232 22.5041C10.4183 22.6957 11.3836 23.3109 12.016 24.2144C12.6484 25.1178 12.896 26.2354 12.7043 27.3214C12.5127 28.4074 11.8974 29.3727 10.994 30.0051C10.0906 30.6375 8.97296 30.885 7.88698 30.6934C7.6569 30.6527 7.42106 30.6578 7.19293 30.7082C6.9648 30.7587 6.74885 30.8537 6.55743 30.9877C6.366 31.1216 6.20285 31.292 6.07729 31.489C5.95173 31.6861 5.86622 31.9059 5.82565 32.1361L5.61765 33.3067C3.80165 43.6161 6.38832 47.3121 16.6977 49.1281L40.0897 53.2534C50.3963 55.0721 54.0923 52.4827 55.911 42.1761C55.9517 41.9456 55.9465 41.7094 55.8959 41.481C55.8453 41.2525 55.7501 41.0363 55.6159 40.8446C55.4817 40.653 55.311 40.4896 55.1137 40.3639C54.9163 40.2382 54.6961 40.1526 54.4657 40.1121C53.3797 39.9207 52.4142 39.3059 51.7816 38.4027C51.1489 37.4995 50.901 36.382 51.0923 35.2961C51.2836 34.2101 51.8985 33.2446 52.8017 32.612C53.7049 31.9793 54.8223 31.7314 55.9083 31.9227ZM25.831 21.5574C26.1696 21.6056 26.495 21.7212 26.7881 21.8975C27.0811 22.0738 27.3358 22.3072 27.537 22.5837C27.7381 22.8603 27.8818 23.1744 27.9593 23.5075C28.0368 23.8406 28.0467 24.1858 27.9883 24.5228C27.9299 24.8597 27.8044 25.1816 27.6193 25.4691C27.4343 25.7567 27.1933 26.0042 26.9108 26.1969C26.6283 26.3897 26.31 26.5237 25.9747 26.5911C25.6394 26.6585 25.294 26.6579 24.959 26.5894H24.9457C24.2787 26.472 23.6857 26.0945 23.2972 25.5398C22.9086 24.9852 22.7562 24.299 22.8737 23.6321C22.9911 22.9651 23.3686 22.3721 23.9232 21.9836C24.4778 21.595 25.1641 21.4426 25.831 21.5601V21.5574ZM37.831 41.8241H37.815C37.1325 41.8219 36.4787 41.549 35.9972 41.0653C35.5158 40.5816 35.2459 39.9266 35.247 39.2441C35.2481 38.5616 35.5199 37.9074 36.0029 37.4251C36.4859 36.9429 37.1405 36.6721 37.823 36.6721C38.5055 36.6721 39.1601 36.9429 39.6431 37.4251C40.1261 37.9074 40.3979 38.5616 40.399 39.2441C40.4 39.9266 40.1302 40.5816 39.6487 41.0653C39.1673 41.549 38.5135 41.8219 37.831 41.8241ZM42.919 26.1147L22.999 40.0641C22.7927 40.2083 22.5601 40.3106 22.3143 40.3649C22.0685 40.4193 21.8144 40.4247 21.5666 40.3809C21.3187 40.3371 21.0819 40.2448 20.8697 40.1095C20.6574 39.9741 20.4739 39.7983 20.3297 39.5921C20.1854 39.3858 20.0831 39.1531 20.0288 38.9074C19.9744 38.6616 19.969 38.4075 20.0128 38.1596C20.0566 37.9118 20.1489 37.6749 20.2842 37.4627C20.4196 37.2505 20.5954 37.067 20.8017 36.9227L40.7217 22.9761C40.9271 22.823 41.1612 22.7128 41.4101 22.6519C41.6589 22.591 41.9174 22.5807 42.1703 22.6215C42.4233 22.6623 42.6654 22.7535 42.8825 22.8896C43.0995 23.0257 43.287 23.204 43.4339 23.4139C43.5808 23.6238 43.6841 23.861 43.7376 24.1115C43.7911 24.3621 43.7939 24.6208 43.7456 24.8724C43.6973 25.124 43.5991 25.3634 43.4566 25.5763C43.3142 25.7892 43.1305 25.9714 42.9163 26.1121L42.919 26.1147Z" fill="#4CAF50"/>
</g>
<defs>
<clipPath id="clip0_191_38531">
<rect width="64" height="64" fill="white"/>
</clipPath>
</defs>
</svg>
